<svg xmlns="http://www.w3.org/2000/svg" viewBox="0 0 114.58 109.02"><defs><style>.cls-1{fill:#f0d36a;}</style></defs><title>Asset 1</title><g id="Layer_2" data-name="Layer 2"><g id="Layer_1-2" data-name="Layer 1"><path class="cls-1" d="M113.32,13.06Q96.42,42.85,79.45,72.61c-1.12,2-3.15,3.36-4,5.55l0-.07.05.14a3.53,3.53,0,0,1-3.09,0c6.18-12.93,14.06-24.9,21.09-37.35,5-8.88,10.06-17.74,15.12-26.66-4.54-1.82-7,.11-8.88,3.51C93.2,29.22,86.74,40.77,80.16,52.25,72.77,65.14,65.25,78,57.38,91.52l-12-21.28h4l6.33,11.12c1.19,1.31,2.32,1.06,3.41-.15,2.11-3.73,4.09-7.54,6.37-11.17,1.12-1.8,1.22-3.26-.06-4.87,1.8-.05,3.75.15,3.9-2.49l.65-.9c.63-.8,1.51-1.45,1.44-2.64l0-.36,1-1.57a10.11,10.11,0,0,0,1.69-1.78Q84.5,37.38,94.75,19.26c1-1.67,3.12-3.69,2.09-5.11s-3.92-.92-6-.59A9.33,9.33,0,0,0,89.4,14c-.15-2.25,1.47-3.14,3.11-4C97,10,102,11,102.8,4.35c-3.49-.82-6.69-.42-9.51,1.87.29-3.6-2.61-1.47-3.92-2.19-.7-1.18-.3-2.37-.07-3.56l18.06,0c0,1.27,0,2.54,0,3.81l0-.06c-1.6.73-3,1.78-2.66,3.69s2.26,1.62,3.5,2.31C109.94,11.13,112.89,9.9,113.32,13.06Z"/><path class="cls-1" d="M89.3.47c-.23,1.19-.63,2.38.07,3.56l0,.2c-3.9-.06-7.85.26-11.68-.27C73,3.3,71.42,6,70,9.78H86.35l2.16-.16a1.45,1.45,0,0,0,2.07-.34l1.14-1.2,1.36.11L92.51,10c-1.64.87-3.26,1.76-3.11,4-.3.47-.59.94-.89,1.4a.4.4,0,0,0-.52-.38,7.37,7.37,0,0,0-10.38.84c-1.63-5.67-6.07-1.75-9.09-2.67-4.6,5.19-6.8,11.94-11.14,17.71-3.56-6-6.9-11.55-10.23-17.15-3.69-1.16-7.34-1.41-10.87.54l-2.14-.9c-3-.85-6-.89-8.81.78-2.48-1.59-5.26-.22-7.84-.81a2.77,2.77,0,0,0-1.94-2.31c-.06-.35-.12-.7-.19-1,2.19-1.13,5.44,1.6,7-1.92,3.68,2,7.36,3.62,11,0,2.57,2.24,5.71,1.66,8.71,1.78,2.13.09,2.54-.64,1.59-2.61-1.73-3.6-6.2-4.44-12.33-2.11-3.42-.86-7-3.3-9.88,1-1.79-.49-2.71-3-5.06-2.21C17.52,3.12,19,2.44,18.55.6l9.8-.54h2L61.44.19l2-.19,2.93.09h7l5,0a9.12,9.12,0,0,0,.91.17c.42,1,.86.94,1.3,0a1.48,1.48,0,0,0,.79-.2ZM68.54,4.41H46.28l11.2,19.21Z"/><path class="cls-1" d="M37.31,75.34Q26.21,56.22,15.1,37.12a5.67,5.67,0,0,1-.77-2.82c.39-1.08.78-2.17,1.16-3.25L39.43,72.14C37.64,72.49,38.11,74.33,37.31,75.34Z"/><path class="cls-1" d="M15.49,31.05c-.38,1.08-.77,2.17-1.16,3.25-6-7-9.7-15.42-13.93-23.49a2.35,2.35,0,0,0,.74-.55l2.14-.17c1.24,1.2,2.58,2.33,3.09,4.08C9,20,13.22,25,15.49,31.05Z"/><path class="cls-1" d="M62.18,102.15c-1.69,2.42-2.29,7.26-4.93,6.85-2.41-.38-3.78-4.79-5-7.82l2.07-3.05,3.16,4.09L64.21,92l.38.29a13.42,13.42,0,0,0-.2,5.88l0,0C62,98.57,61,99.74,62.18,102.15Z"/><path class="cls-1" d="M37.31,75.34c.8-1,.33-2.85,2.12-3.2q4.34,7.5,8.66,15l-2.59,2C42.2,84.87,40,80,37.31,75.34Z"/><path class="cls-1" d="M72.34,78.18a3.53,3.53,0,0,0,3.09,0c-2.24,6-5.62,11.28-9.19,16.5l-1.65-2.41L64.21,92A62.53,62.53,0,0,1,72.34,78.18Z"/><path class="cls-1" d="M45.5,89.12l2.59-2,6.28,11-2.07,3.05C49.8,97.29,47.11,93.51,45.5,89.12Z"/><path class="cls-1" d="M6.37,14.17c-.51-1.75-1.85-2.88-3.09-4.08C5.21,9,8,10.85,9.46,8.24c2.16-.13,1.64-2,2.06-3.21l3.84,5c.07.34.13.69.19,1L14.26,14.4C11.64,13.85,9,12.85,6.37,14.17Z"/><path class="cls-1" d="M11.52,5c-.42,1.24.1,3.08-2.06,3.21a8.3,8.3,0,0,1-1.28-7C9.49-1,11.71.85,13.33.05l2,.13-.05.29-1.08,3.4C13.35,4.41,11.86,3.41,11.52,5Z"/><path class="cls-1" d="M113.32,13.06c-.43-3.16-3.38-1.93-5.08-2.88-1.24-.69-3.19-.54-3.5-2.31s1.06-3,2.66-3.69a13.35,13.35,0,0,1-1,2.69c-1.62,2.5-.5,3.08,1.9,3,1.3,0,2.6.07,3.9.06C115.54,9.9,114.84,11.33,113.32,13.06Z"/><path class="cls-1" d="M107.36.43a1.91,1.91,0,0,1,2.49.54l-2.47,3.27C107.38,3,107.37,1.7,107.36.43Z"/><path class="cls-1" d="M62.18,102.15c-1.18-2.41-.15-3.58,2.23-4Q63.3,100.16,62.18,102.15Z"/><path class="cls-1" d="M64.59,92.32l1.65,2.41C65.62,95.89,65,97,64.39,98.2A13.42,13.42,0,0,1,64.59,92.32Z"/><path class="cls-1" d="M1.14,10.26a2.35,2.35,0,0,1-.74.55L0,10.29Z"/><path class="cls-1" d="M75.38,78.09l0,.07Z"/><path class="cls-1" d="M59.4,65.12c-.95,5.35-2.18,10.7-.27,16.1-1.09,1.21-2.22,1.46-3.41.15,1.34-5.77,1.93-11.46-1.57-16.83-.62-1-1.91-2-.82-3.4,1.69.65,2.1,2.38,2.74,3.72C57.2,67.21,58.27,65.53,59.4,65.12Z"/><path class="cls-1" d="M46,65.51l3.35,4.74h-4c-.4-.67-.79-1.35-1.18-2l1.16-2Z"/><path class="cls-1" d="M71.48,58.79l1-1.57Z"/><path class="cls-1" d="M17.49,13.39c3.68,8.83,9.06,16.73,13.68,25,4.4,7.92,9.69,15.34,13.21,23.74a2.75,2.75,0,0,1-2.13,2.09C34.25,52.55,27.71,40,20.7,27.67c-2.43-4.26-5.87-8.1-6.44-13.28l1.29-3.31A2.77,2.77,0,0,1,17.49,13.39Z"/><path class="cls-1" d="M47.15,13.78a31.4,31.4,0,0,1-3.89-.15c-3.9-.62-5.34.71-3.86,4.57-2.22-.34-2.17-2.51-3.12-3.88C39.81,12.37,43.46,12.62,47.15,13.78Z"/><path class="cls-1" d="M27.86,18.63,25.33,14.2c2.81-1.67,5.78-1.63,8.81-.78a10.36,10.36,0,0,1-2.4.19c-4-.66-4.78,1-3.19,4.39Z"/><path class="cls-1" d="M16.4,4l-2.23-.13L15.25.47,18.54.6C19,2.44,17.52,3.12,16.4,4Z"/><path class="cls-1" d="M76.34,17.19c.12-2.43-.49-4-3.48-3.62-1.4.18-3,.64-4.34-.35,3,.92,7.46-3,9.09,2.67C77.42,16.55,77.42,17.39,76.34,17.19Z"/><path class="cls-1" d="M91.72,8.08c.41-.76.44-1.82,1.6-2,1.12.84,0,1.41-.24,2.08Z"/><path class="cls-1" d="M88.51,9.62l2.07-.34A1.45,1.45,0,0,1,88.51,9.62Z"/><path class="cls-1" d="M42.25,64.26a2.75,2.75,0,0,0,2.13-2.09c1.78.5.84,2.36,1.66,3.34l-.69.65-2.21.16C42.23,65.89,42.34,65,42.25,64.26Z"/><path class="cls-1" d="M43.14,66.32l2.21-.16-1.16,2C43.26,67.9,43.28,67.06,43.14,66.32Z"/><path class="cls-1" d="M34,26.43q3,5.47,6.07,11c-3.54-2.6-5.2-6.31-7-9.91Z"/><path class="cls-1" d="M49.36,35.13l3.12,4,.78,1.32a1.24,1.24,0,0,0,.4.71c.21.41.42.81.62,1.22a1,1,0,0,0,.36.77c.24.31.49.61.73.91l0,0L56.51,47l-.83.9C53.67,43.6,49.74,40.24,49.36,35.13Z"/><path class="cls-1" d="M59.22,47.36c-1.07,4.24-1.54,4.9-4.91,6.8,0-2.17,3-3.71,1.37-6.25l.83-.9Z"/><path class="cls-1" d="M53.36,56.11v5.08l-2.72,1.22-.8-.75a6.14,6.14,0,0,0,.47-4.47l.7-.72C52,57.45,52.57,56.16,53.36,56.11Z"/><path class="cls-1" d="M42.36,23.14a11.8,11.8,0,0,1,4,7C43.47,28.74,42.46,26.2,42.36,23.14Z"/><path class="cls-1" d="M50.31,57.19a22,22,0,0,1-4.08-6.92l.81-.8,4,7Z"/><path class="cls-1" d="M46.36,30.13a6.31,6.31,0,0,1,3,5C46.89,34.38,46,32.66,46.36,30.13Z"/><path class="cls-1" d="M28.55,18a9.9,9.9,0,0,1,3.06,4.94l-.9,1-2.85-5.29Z"/><path class="cls-1" d="M46.23,50.27c-.77-1.21-1.54-2.42-2.72-4.3,2.75.46,2.84,2.26,3.53,3.5Z"/><path class="cls-1" d="M33,27.47l-2.33-3.55.9-1L34,26.43Z"/><path class="cls-1" d="M39.34,18.12c1.63.85,2.71,2,2,4A3.29,3.29,0,0,1,39.34,18.12Z"/><path class="cls-1" d="M54.36,54.09c.83,1.29.58,2-1,2.09A1.91,1.91,0,0,1,54.36,54.09Z"/><path class="cls-1" d="M50.28,63.57c-.48.65-.72,2-1.85,1.16-.6-.46,0-1.36.67-1.84Z"/><path class="cls-1" d="M50.64,62.41l-.36,1.16-1.18-.68c.24-.41.49-.82.74-1.23Z"/><path class="cls-1" d="M41.39,22.19c1.16-.5,1,.34,1,1C41.12,23.78,41.38,22.86,41.39,22.19Z"/><path class="cls-1" d="M66.31,51.19a.37.37,0,0,0,.18-.44Q67.73,48.89,69,47l.16-.22q4.2-7.23,8.42-14.44l1.21.67C74.1,41.18,70,49.6,64.35,57.21c-1-1.72,1-2.67,1.1-4.12l0-.37C65.7,52.21,66,51.7,66.31,51.19Z"/><path class="cls-1" d="M63.52,37.21c1.52-1.47,1.87-3.85,3.82-5,.73,3.3-2.83,4.91-3.1,7.82h0c-.83.68-1.39,2-2.85,1.11a1.68,1.68,0,0,1,0-.89l.94-1.1,0,0Z"/><path class="cls-1" d="M82.51,23.2l1-1.93,3.73-5.18a6.49,6.49,0,0,0,.73.66c-1,3.4-3.33,6.1-5,9.13l-.93-1Z"/><path class="cls-1" d="M67.41,32.13a11.46,11.46,0,0,1,4-7c1.36,2-1.26,3-1.27,4.67v0C69,30.33,69.47,32.72,67.41,32.13Z"/><path class="cls-1" d="M71.33,25.19c.75-2.42,1.09-5.11,4-6C74.92,21.75,73.92,24,71.33,25.19Z"/><path class="cls-1" d="M64.3,59.15c-1.08,1.55-1.86-.27-1.89-.5-.24-1.53.71-1.83,2-1.51Z"/><path class="cls-1" d="M80.2,27.14c.39-.64.78-1.29,1.16-1.94l.7-.32.93,1A2,2,0,0,1,80.2,27.14Z"/><path class="cls-1" d="M75.35,19.19c-.92-1.31-.24-1.83,1-2.05C76.55,18.08,76.43,18.88,75.35,19.19Z"/><path class="cls-1" d="M88.51,15.43c-.16.44-.33.88-.49,1.31a5.57,5.57,0,0,1-.73-.65l.7-1A.4.4,0,0,1,88.51,15.43Z"/><path class="cls-1" d="M61.84,62.15c-.52,1.27-.78,2.75-2.49,3C59.45,63.58,59.69,62.08,61.84,62.15Z"/><path class="cls-1" d="M63.52,37.21l-1.17,1.92Z"/><path class="cls-1" d="M53.26,40.5l-.78-1.32Z"/><path class="cls-1" d="M62.33,39.15l-.94,1.1Z"/><path class="cls-1" d="M54.28,42.43c-.2-.41-.41-.81-.62-1.22C53.87,41.62,54.08,42,54.28,42.43Z"/><path class="cls-1" d="M55.37,44.11c-.24-.3-.49-.6-.73-.91C54.88,43.51,55.13,43.81,55.37,44.11Z"/><path class="cls-1" d="M33.4,8.24c-1.32-.11-1.19-1.3-1.58-2.1C33.58,5.9,33.71,6.91,33.4,8.24Z"/><path class="cls-1" d="M22.43,8.24c-.8-.49-1.54-1-1.1-2.14C22.71,6.3,22,7.54,22.43,8.24Z"/><path class="cls-1" d="M66.31,51.19c-.31.51-.61,1-.91,1.53C65.7,52.21,66,51.7,66.31,51.19Z"/><path class="cls-1" d="M82.06,24.88l-.7.32,1.15-2Z"/></g></g></svg>