<svg xmlns="http://www.w3.org/2000/svg" viewBox="0 0 297.99 169.76"><defs><style>.cls-1{fill:#ba9356;}.cls-2{fill:#3b3b3b;}.cls-3{fill:#393939;}.cls-4{fill:#c7a877;}</style></defs><title>Asset 1</title><g id="Layer_2" data-name="Layer 2"><g id="Layer_1-2" data-name="Layer 1"><path class="cls-1" d="M200,169q-31.95.38-63.89.76c-3.35.05-4.94-2-6.49-4.56q-13.87-23.1-28-46.07c-.88-1.45-1.23-3.64-3.65-3.59.36-2.49-.93-4.49-2-6.54-8.44-16-19.3-30.68-27.27-47-.62-1.28-2-2.2-3-3.29a1.93,1.93,0,0,1,1.89-1.34c22.51.93,45,.13,67.56.4a1.33,1.33,0,0,1,.46.16c-1.76,1.56-.07,2.71.57,3.82,9.53,16.3,19.13,32.56,28.67,48.86.95,1.63,2,3,3.91,3.52-.21,2.48,1,4.43,2.24,6.42,5.11,8.13,10.39,16.16,15.16,24.48C190.72,153,197.29,159.89,200,169Z"/><path class="cls-1" d="M168,.32C188.11.24,208.25.23,228.39,0c3.89,0,5.61,2.17,7.26,5q24.53,42,49.07,84c3.36,5.74,6.75,11.46,10,17.24,1,1.69,2.39,3.26,2.18,5.45-2.06,2.07-4.66,2.2-7.37,2.16q-28.83-.36-57.65-.66-16.53-27.86-33-55.71c0-2.87-1.79-5-3.11-7.24-4.27-7.32-9-14.39-13-21.89-4.8-9.09-11.8-17-15-27Z"/><path class="cls-2" d="M65.68,58.71c1,1.09,2.38,2,3,3.29,8,16.32,18.83,31,27.27,47,1.08,2,2.37,4,2,6.54q-15,25-30,50c-1.35,2.25-2.73,4.09-5.71,4.08-20.63,0-41.27,0-61.61,0-1.41-1.61-.23-2.65.25-3.45Q32.71,112.9,64.64,59.75A6,6,0,0,1,65.68,58.71Z"/><path class="cls-3" d="M231.93,113.15q28.83.33,57.65.66c2.71,0,5.31-.09,7.37-2.16,1.85,1.66.86,3.35-.06,4.92q-15,25.32-30.06,50.61a4.39,4.39,0,0,1-4.07,2.38L200,169c-2.66-9.11-9.23-16-13.81-24-4.77-8.32-10-16.35-15.16-24.48-1.25-2-2.45-3.94-2.23-6.42q28.94-.15,57.88-.34C228.4,113.77,230.29,114.41,231.93,113.15Z"/><path class="cls-2" d="M198.89,57.44l-59,.11c-1.33,0-2.65-.12-4-.12-2.39,0-2.34-.84-1.26-2.7C144.46,37.84,154.14,20.89,163.87,4c.73-1.25,1.21-2.78,2.92-3.17l1,.56c3.16,10,10.16,17.87,15,27,4,7.5,8.72,14.57,13,21.89C197.1,52.46,198.93,54.57,198.89,57.44Z"/><path class="cls-4" d="M167.83,1.35l-1-.56A.8.8,0,0,1,168,.32Z"/></g></g></svg>